<svg width="32" height="32" viewBox="0 0 32 32" fill="none" xmlns="http://www.w3.org/2000/svg">
  <rect width="32" height="32" rx="6" fill="#0A0B0D"/>
  <!-- 打开的书 -->
  <path d="M16 8.5C14.5 7.5 12.5 7 10 7C9.4 7 9 7.4 9 8V21C9 21.6 9.4 22 10 22C12.5 22 14.5 22.5 16 23.5C17.5 22.5 19.5 22 22 22C22.6 22 23 21.6 23 21V8C23 7.4 22.6 7 22 7C19.5 7 17.5 7.5 16 8.5Z" stroke="#32F08C" stroke-width="1.6" stroke-linejoin="round" fill="#32F08C" fill-opacity="0.08"/>
  <line x1="16" y1="8.5" x2="16" y2="23.5" stroke="#32F08C" stroke-width="1.6"/>
  <!-- 问号 -->
  <path d="M13.2 12.4C13.2 11.2 14.1 10.4 15.4 10.4C16.7 10.4 17.5 11.2 17.5 12.3C17.5 13.1 17.1 13.6 16.3 14.1C15.6 14.5 15.4 14.8 15.4 15.4V15.7" stroke="#32F08C" stroke-width="1.4" stroke-linecap="round" fill="none"/>
  <circle cx="15.4" cy="17.6" r="0.85" fill="#32F08C"/>
  <!-- 装饰点 -->
  <circle cx="11" cy="11" r="0.6" fill="#32F08C" opacity="0.5"/>
  <circle cx="21" cy="11" r="0.6" fill="#32F08C" opacity="0.5"/>
  <circle cx="11" cy="20" r="0.6" fill="#32F08C" opacity="0.5"/>
  <circle cx="21" cy="20" r="0.6" fill="#32F08C" opacity="0.5"/>
</svg>
